<?xml version="1.0" standalone="no"?>
<!DOCTYPE svg PUBLIC "-//W3C//DTD SVG 20010904//EN"
 "http://www.w3.org/TR/2001/REC-SVG-20010904/DTD/svg10.dtd">
<svg version="1.0" xmlns="http://www.w3.org/2000/svg"
 width="796.000000pt" height="796.000000pt" viewBox="0 0 796.000000 796.000000"
 preserveAspectRatio="xMidYMid meet">
<metadata>
Created by potrace 1.11, written by Peter Selinger 2001-2013
</metadata>
<g transform="translate(0.000000,796.000000) scale(0.100000,-0.100000)"
fill="#000000" stroke="none">
<path d="M3698 7950 c-576 -43 -1150 -214 -1643 -489 -1148 -642 -1901 -1788
-2029 -3086 -118 -1194 298 -2358 1144 -3205 610 -612 1403 -1008 2260 -1129
233 -34 594 -47 815 -31 970 72 1832 458 2514 1125 414 405 713 853 924 1385
268 676 344 1435 217 2160 -119 672 -418 1313 -862 1847 -114 138 -354 380
-482 488 -616 518 -1327 824 -2141 920 -156 19 -555 27 -717 15z m362 -2234
c38 -150 20 -326 -49 -471 l-29 -60 -27 60 c-87 193 -87 416 1 610 l27 60 28
-60 c16 -33 38 -96 49 -139z m-2135 -166 c673 -141 1178 -669 1280 -1340 19
-122 19 -358 0 -480 -103 -674 -604 -1197 -1285 -1341 -85 -18 -140 -22 -290
-23 -181 -1 -350 16 -350 35 0 5 6 9 13 9 28 0 205 64 292 104 462 218 786
630 897 1139 19 88 22 132 22 317 0 184 -3 229 -22 315 -111 512 -435 923
-897 1141 -93 43 -218 88 -279 100 -54 10 -35 21 56 33 46 6 94 13 108 15 66
12 359 -4 455 -24z m4680 10 c95 -17 95 -20 5 -46 -588 -171 -1023 -660 -1136
-1277 -24 -126 -24 -408 0 -534 113 -617 548 -1106 1136 -1277 47 -13 78 -27
70 -30 -82 -29 -351 -44 -500 -27 -749 86 -1326 652 -1426 1400 -100 754 367
1493 1094 1730 82 27 246 63 342 75 62 7 353 -2 415 -14z m-2888 -158 c132
-128 156 -157 185 -217 28 -61 33 -83 36 -169 l4 -100 -33 28 c-19 16 -89 82
-156 147 -131 128 -170 186 -192 287 -12 60 -15 172 -3 172 4 0 75 -67 159
-148z m703 106 c0 -79 -20 -172 -50 -234 -23 -46 -58 -88 -155 -183 l-125
-122 0 -60 0 -60 155 148 c85 81 159 149 165 151 13 5 13 -65 -1 -147 -18
-115 -48 -163 -190 -303 l-129 -127 0 -62 0 -61 156 151 c86 83 161 151 165
151 5 0 9 -19 9 -42 0 -80 -20 -163 -55 -235 -30 -60 -54 -89 -155 -184 l-120
-112 0 -64 0 -64 133 130 c72 71 147 141 165 156 l32 27 0 -49 c0 -81 -18
-162 -50 -232 -26 -55 -52 -86 -156 -186 l-124 -120 0 -61 0 -62 145 140 c79
77 153 147 165 155 19 14 20 13 20 -39 0 -77 -25 -181 -57 -241 -18 -33 -73
-96 -150 -171 l-123 -120 0 -61 0 -61 158 153 c86 84 160 153 165 153 12 0 8
-100 -7 -171 -22 -104 -49 -144 -187 -284 l-129 -131 0 -57 c0 -31 1 -57 3
-57 1 0 72 68 157 150 85 82 158 150 163 150 10 0 9 -73 -3 -150 -18 -113 -54
-171 -195 -309 l-125 -123 0 -60 0 -60 155 149 c86 81 160 150 165 151 13 5
13 -66 -1 -147 -18 -115 -48 -163 -190 -303 l-129 -127 0 -111 0 -110 -35 0
-35 0 0 1534 c0 994 4 1552 10 1587 21 109 51 153 218 317 86 83 160 152 164
152 5 0 8 -19 8 -42z m-709 -500 c132 -124 154 -150 186 -216 34 -68 38 -84
41 -176 l4 -100 -68 61 c-124 110 -251 247 -276 298 -14 28 -31 74 -37 103
-12 56 -15 172 -5 172 3 0 73 -64 155 -142z m154 -557 c53 -72 76 -153 73
-249 l-3 -82 -150 144 c-97 92 -160 161 -177 193 -37 67 -58 153 -58 236 l0
69 142 -133 c77 -74 156 -154 173 -178z m-46 -346 c88 -95 114 -156 119 -285
l4 -104 -132 124 c-73 69 -150 146 -171 172 -55 70 -80 146 -87 258 l-5 95
107 -99 c58 -54 133 -127 165 -161z m-27 -373 c117 -120 141 -170 146 -312 l4
-104 -148 141 c-89 85 -162 163 -181 195 -41 67 -63 153 -63 241 l0 69 78 -70
c42 -39 116 -110 164 -160z m-50 -347 c162 -159 190 -210 196 -357 3 -54 0
-98 -4 -98 -5 0 -77 67 -160 148 -190 185 -223 247 -224 415 l0 69 33 -27 c17
-15 89 -83 159 -150z m-18 -381 c126 -121 150 -149 178 -210 28 -60 33 -82 36
-168 5 -119 20 -124 -172 61 -119 115 -140 140 -172 206 -31 65 -36 89 -41
173 -5 86 -4 96 9 88 9 -5 82 -72 162 -150z m-7 -392 c133 -128 156 -156 185
-217 28 -61 33 -83 36 -170 l4 -99 -68 61 c-124 110 -251 247 -276 298 -14 28
-31 74 -37 103 -12 60 -15 172 -3 172 4 0 75 -67 159 -148z"/>
</g>
</svg>
